<?xml version="1.0" encoding="utf-8"?>
<!-- Generator: Adobe Illustrator 24.0.3, SVG Export Plug-In . SVG Version: 6.00 Build 0)  -->
<svg version="1.1" id="Layer_1" xmlns="http://www.w3.org/2000/svg" xmlns:xlink="http://www.w3.org/1999/xlink" x="0px" y="0px"
	 viewBox="0 0 609.48 224.48" style="enable-background:new 0 0 609.48 224.48;" xml:space="preserve">
<style type="text/css">
	.st0{fill:none;}
	.st1{fill:#E3E3E3;}
	.st2{fill:none;stroke:#F16522;stroke-width:0;stroke-linecap:round;stroke-linejoin:round;}
	.st3{fill:#F16522;}
	.st4{fill:#0B0204;}
	.st5{fill:none;stroke:#0B0204;stroke-width:0;stroke-linecap:round;stroke-linejoin:round;}
	.st6{fill:#FFFFFF;}
</style>
<g id="Artwork_10_1_">
	<g>
		<path class="st0" d="M255.71,59c-0.01,0.03-0.03,0.06-0.05,0.1C255.68,59.07,255.69,59.03,255.71,59z"/>
		<path class="st0" d="M276.68,137.66c0.01,0.01,0.02,0.02,0.02,0.03c-0.12-0.15-0.25-0.3-0.37-0.46c0,0,0.01,0.01,0.01,0.01
			C276.46,137.38,276.57,137.52,276.68,137.66z"/>
		<path class="st0" d="M287.19,53.4c0.03-0.01,0.07-0.04,0.12-0.07C287.25,53.37,287.21,53.39,287.19,53.4z"/>
		<path class="st0" d="M255.51,59.4c0-0.01,0.01-0.01,0.01-0.02C255.52,59.39,255.51,59.4,255.51,59.4z"/>
		<path class="st0" d="M256.69,108.23c0,0.01,0.01,0.01,0.01,0.02C256.7,108.24,256.7,108.24,256.69,108.23z"/>
		<path class="st0" d="M274.39,134.86C274.39,134.86,274.39,134.86,274.39,134.86c-0.04-0.05-0.09-0.1-0.14-0.16
			c0.03,0.04,0.06,0.07,0.1,0.11C274.36,134.83,274.38,134.84,274.39,134.86z"/>
		<path class="st0" d="M256.72,108.28c0.07,0.15,0.12,0.25,0.15,0.31c-0.02-0.04-0.03-0.07-0.05-0.1c-0.01-0.03-0.03-0.06-0.04-0.09
			c-0.02-0.04-0.04-0.08-0.05-0.11C256.72,108.29,256.72,108.29,256.72,108.28L256.72,108.28z"/>
		<path class="st0" d="M255.54,59.35c0.01-0.01,0.01-0.03,0.02-0.04v0C255.55,59.33,255.54,59.34,255.54,59.35z"/>
		<path class="st0" d="M255.62,59.17c0-0.01,0.01-0.02,0.01-0.03c-0.02,0.04-0.04,0.07-0.05,0.1
			C255.6,59.22,255.61,59.2,255.62,59.17z"/>
		<path class="st0" d="M255.56,59.31L255.56,59.31c0.01-0.02,0.02-0.04,0.03-0.07C255.58,59.27,255.57,59.29,255.56,59.31z"/>
		<path class="st0" d="M255.75,58.91C255.76,58.9,255.76,58.9,255.75,58.91L255.75,58.91z"/>
		<path class="st0" d="M246.73,175.47c-0.22,0.16-0.33,0.39-0.33,0.69v0.33c0,0.31,0.1,0.54,0.29,0.68
			c0.19,0.15,0.45,0.22,0.78,0.22c0.21,0,0.4-0.04,0.58-0.11c0.18-0.07,0.33-0.16,0.46-0.28c0.13-0.11,0.23-0.25,0.3-0.39
			c0.07-0.15,0.11-0.3,0.11-0.46v-0.93h-1.14C247.29,175.23,246.94,175.31,246.73,175.47z"/>
		<path class="st0" d="M278.32,172.54c-0.49,0-0.88,0.15-1.14,0.45c-0.27,0.3-0.4,0.75-0.4,1.36v1.25c0,0.61,0.13,1.06,0.4,1.36
			c0.27,0.3,0.65,0.44,1.14,0.44c0.49,0,0.88-0.15,1.14-0.44c0.27-0.3,0.4-0.75,0.4-1.36v-1.25c0-0.61-0.13-1.06-0.4-1.36
			C279.19,172.68,278.81,172.54,278.32,172.54z"/>
		<path class="st0" d="M260.24,172.54c-0.49,0-0.88,0.15-1.14,0.45c-0.27,0.3-0.4,0.75-0.4,1.36v1.25c0,0.61,0.13,1.06,0.4,1.36
			c0.27,0.3,0.65,0.44,1.14,0.44c0.49,0,0.88-0.15,1.14-0.44c0.27-0.3,0.4-0.75,0.4-1.36v-1.25c0-0.61-0.13-1.06-0.4-1.36
			C261.11,172.68,260.73,172.54,260.24,172.54z"/>
		<path class="st0" d="M275.87,152.45h-0.18c-0.98,0-1.69,0.69-1.69,1.75c0,1.06,0.68,1.84,1.79,2.45c1.11-0.61,1.77-1.39,1.77-2.45
			C277.56,153.15,276.87,152.45,275.87,152.45z"/>
		<path class="st0" d="M242.77,172.86c-0.12-0.1-0.27-0.19-0.44-0.24c-0.17-0.06-0.35-0.08-0.54-0.08c-0.5,0-0.89,0.16-1.15,0.48
			c-0.26,0.32-0.4,0.76-0.4,1.33v1.25c0,0.57,0.13,1.01,0.4,1.33c0.26,0.32,0.65,0.47,1.15,0.47c0.19,0,0.37-0.03,0.54-0.08
			c0.17-0.06,0.32-0.14,0.44-0.24c0.12-0.1,0.22-0.23,0.3-0.37c0.08-0.14,0.11-0.3,0.11-0.48v-2.5c0-0.18-0.04-0.34-0.11-0.48
			C243,173.09,242.9,172.96,242.77,172.86z"/>
		<path class="st0" d="M201.76,175.47c-0.22,0.16-0.33,0.39-0.33,0.69v0.33c0,0.31,0.1,0.54,0.29,0.68
			c0.19,0.15,0.45,0.22,0.78,0.22c0.21,0,0.4-0.04,0.58-0.11c0.18-0.07,0.33-0.16,0.46-0.28c0.13-0.11,0.23-0.25,0.3-0.39
			c0.07-0.15,0.11-0.3,0.11-0.46v-0.93h-1.14C202.32,175.23,201.97,175.31,201.76,175.47z"/>
		<path class="st0" d="M223.5,172.54c-0.49,0-0.88,0.15-1.14,0.45c-0.27,0.3-0.4,0.75-0.4,1.36v1.25c0,0.61,0.13,1.06,0.4,1.36
			c0.27,0.3,0.65,0.44,1.14,0.44c0.49,0,0.88-0.15,1.14-0.44c0.27-0.3,0.4-0.75,0.4-1.36v-1.25c0-0.61-0.13-1.06-0.4-1.36
			C224.38,172.68,224,172.54,223.5,172.54z"/>
		<path class="st0" d="M195.83,154.09l-0.99,0.5c-0.88,0.45-1.5,0.93-1.5,1.51c0,0.66,0.55,0.94,1.54,0.94h2.07
			c-0.08-0.18-0.15-0.38-0.23-0.6L195.83,154.09z"/>
		<path class="st0" d="M225.95,154.64c0-0.68-0.66-0.99-2.07-0.99c-0.66,0-1.37,0.1-2.03,0.28v0.07l2.27,2.7l0.53-0.45
			C225.5,155.51,225.95,155.22,225.95,154.64z"/>
		<path class="st0" d="M300.69,172.5c-0.49,0-0.88,0.16-1.15,0.47c-0.27,0.31-0.41,0.77-0.41,1.38v0.16h2.99v-0.16
			C302.13,173.11,301.65,172.5,300.69,172.5z"/>
		<path class="st0" d="M244.62,108.69c0.54,0.35,1.08,0.69,1.61,1.05C245.7,109.38,245.16,109.03,244.62,108.69z"/>
		<path class="st0" d="M228.8,99.88c2.52,1.2,4.99,2.47,7.41,3.79C233.79,102.35,231.32,101.09,228.8,99.88z"/>
		<path class="st0" d="M236.32,103.74c0.65,0.36,1.29,0.72,1.93,1.09C237.61,104.46,236.97,104.1,236.32,103.74z"/>
		<path class="st0" d="M239.14,105.33c0.59,0.34,1.17,0.69,1.75,1.04C240.31,106.02,239.73,105.67,239.14,105.33z"/>
		<path class="st0" d="M223,97.26c0.78,0.33,1.55,0.67,2.32,1.02C224.56,97.94,223.78,97.6,223,97.26z"/>
		<path class="st0" d="M225.97,98.57c0.75,0.34,1.49,0.68,2.22,1.03C227.46,99.25,226.71,98.91,225.97,98.57z"/>
		<path class="st0" d="M211.54,92.88c3.79,1.29,7.47,2.7,11.06,4.22C219.02,95.57,215.33,94.17,211.54,92.88z"/>
		<path class="st0" d="M328.03,156.72c0-1.52-0.78-2.51-1.9-2.51c-1.01,0-1.65,0.68-1.65,1.67c0,0.81,0.53,1.16,1.51,1.16h2.05
			V156.72z"/>
		<path class="st0" d="M208.61,91.91c0.93,0.3,1.85,0.6,2.77,0.91C210.46,92.51,209.54,92.21,208.61,91.91z"/>
		<path class="st0" d="M251.22,113.21c0.45,0.33,0.88,0.66,1.32,0.99C252.1,113.87,251.66,113.54,251.22,113.21z"/>
		<path class="st0" d="M247.24,110.42c0.93,0.63,1.86,1.28,2.77,1.93C249.1,111.69,248.17,111.05,247.24,110.42z"/>
		<path class="st0" d="M264.59,124.41c0.31,0.3,0.62,0.6,0.92,0.9C265.21,125.01,264.9,124.71,264.59,124.41z"/>
		<path class="st0" d="M266.9,126.68c0.32,0.32,0.64,0.65,0.95,0.97C267.53,127.32,267.22,127,266.9,126.68z"/>
		<path class="st0" d="M269.18,129.03c0.31,0.32,0.61,0.65,0.92,0.97C269.79,129.67,269.48,129.35,269.18,129.03z"/>
		<path class="st0" d="M261.77,121.8c0.36,0.32,0.71,0.64,1.06,0.97C262.48,122.44,262.13,122.12,261.77,121.8z"/>
		<path class="st0" d="M253.79,115.14c0.43,0.33,0.85,0.66,1.27,0.99C254.64,115.8,254.22,115.47,253.79,115.14z"/>
		<path class="st0" d="M258.88,119.26c0.36,0.31,0.73,0.61,1.09,0.93C259.6,119.88,259.24,119.57,258.88,119.26z"/>
		<path class="st0" d="M271.47,131.52c0.26,0.29,0.53,0.59,0.79,0.88C272.01,132.1,271.74,131.81,271.47,131.52z"/>
		<path class="st0" d="M256.33,117.15c0.4,0.33,0.8,0.65,1.2,0.98C257.14,117.8,256.73,117.47,256.33,117.15z"/>
		<path class="st0" d="M241.91,106.98c0.56,0.34,1.11,0.68,1.66,1.03C243.02,107.67,242.46,107.32,241.91,106.98z"/>
		<path class="st0" d="M414.72,154.21c-1.01,0-1.65,0.68-1.65,1.67c0,0.81,0.53,1.16,1.51,1.16h2.05v-0.31
			C416.62,155.2,415.84,154.21,414.72,154.21z"/>
		<path class="st0" d="M426.63,154.24c-0.78,0-1.22,0.48-1.52,1.27l-0.26,0.71l3.47,0.98v-0.46
			C428.32,155.18,427.69,154.24,426.63,154.24z"/>
		<path class="st0" d="M317.01,172.86c-0.12-0.1-0.27-0.19-0.44-0.24c-0.17-0.06-0.35-0.08-0.54-0.08c-0.5,0-0.89,0.16-1.15,0.48
			c-0.26,0.32-0.4,0.76-0.4,1.33v1.25c0,0.57,0.13,1.01,0.4,1.33c0.26,0.32,0.65,0.47,1.15,0.47c0.19,0,0.37-0.03,0.54-0.08
			c0.17-0.06,0.32-0.14,0.44-0.24c0.12-0.1,0.22-0.23,0.3-0.37c0.08-0.14,0.11-0.3,0.11-0.48v-2.5c0-0.18-0.04-0.34-0.11-0.48
			C317.23,173.09,317.13,172.96,317.01,172.86z"/>
		<path class="st0" d="M378.24,172.54c-0.49,0-0.88,0.15-1.14,0.45c-0.27,0.3-0.4,0.75-0.4,1.36v1.25c0,0.61,0.13,1.06,0.4,1.36
			c0.27,0.3,0.65,0.44,1.14,0.44c0.49,0,0.88-0.15,1.14-0.44c0.27-0.3,0.4-0.75,0.4-1.36v-1.25c0-0.61-0.13-1.06-0.4-1.36
			C379.12,172.68,378.74,172.54,378.24,172.54z"/>
		<path class="st0" d="M364.95,155.12c0,0.65,0.36,0.91,1.37,0.91c1.32,0,1.8-0.28,1.8-1.12v-2.23l-1.49,0.76
			C365.46,154.04,364.95,154.44,364.95,155.12z"/>
		<path class="st0" d="M344.62,172.5c-0.49,0-0.88,0.16-1.15,0.47c-0.27,0.31-0.41,0.77-0.41,1.38v0.16h2.99v-0.16
			C346.06,173.11,345.58,172.5,344.62,172.5z"/>
		<path class="st0" d="M421.95,172.5c-0.49,0-0.88,0.16-1.15,0.47c-0.27,0.31-0.41,0.77-0.41,1.38v0.16h2.99v-0.16
			C423.39,173.11,422.91,172.5,421.95,172.5z"/>
		<path class="st0" d="M326.14,175.47c-0.22,0.16-0.33,0.39-0.33,0.69v0.33c0,0.31,0.1,0.54,0.29,0.68
			c0.19,0.15,0.45,0.22,0.78,0.22c0.21,0,0.4-0.04,0.58-0.11c0.18-0.07,0.33-0.16,0.46-0.28c0.13-0.11,0.23-0.25,0.3-0.39
			c0.07-0.15,0.11-0.3,0.11-0.46v-0.93h-1.14C326.71,175.23,326.36,175.31,326.14,175.47z"/>
		<path class="st0" d="M359.92,172.5c-0.49,0-0.88,0.16-1.15,0.47c-0.27,0.31-0.41,0.77-0.41,1.38v0.16h2.99v-0.16
			C361.36,173.11,360.88,172.5,359.92,172.5z"/>
		<polygon class="st0" points="309.6,170.55 309.48,170.55 309.22,171.59 308.27,174.76 310.83,174.76 309.86,171.59 		"/>
		<path class="st0" d="M404.61,172.5c-0.49,0-0.88,0.16-1.15,0.47c-0.27,0.31-0.41,0.77-0.41,1.38v0.16h2.99v-0.16
			C406.04,173.11,405.56,172.5,404.61,172.5z"/>
		<path class="st1" d="M276.68,137.66c-0.11-0.14-0.23-0.28-0.34-0.42c0,0-0.01-0.01-0.01-0.01c-0.64-0.8-1.29-1.59-1.94-2.37
			c0,0,0,0,0,0c-0.01-0.02-0.03-0.03-0.04-0.05c-0.03-0.04-0.06-0.07-0.1-0.11c-0.65-0.78-1.32-1.54-1.99-2.3
			c-0.26-0.3-0.53-0.59-0.79-0.88c-0.46-0.51-0.92-1.02-1.38-1.52c-0.3-0.33-0.61-0.65-0.92-0.97c-0.44-0.46-0.88-0.92-1.33-1.38
			c-0.32-0.33-0.63-0.65-0.95-0.97c-0.46-0.46-0.92-0.91-1.38-1.37c-0.31-0.3-0.61-0.6-0.92-0.9c-0.58-0.55-1.16-1.1-1.75-1.64
			c-0.35-0.33-0.71-0.65-1.06-0.97c-0.6-0.54-1.2-1.08-1.81-1.61c-0.36-0.31-0.72-0.62-1.09-0.93c-0.45-0.38-0.89-0.76-1.34-1.13
			c-0.4-0.33-0.8-0.66-1.2-0.98c-0.42-0.34-0.85-0.68-1.27-1.01c-0.42-0.33-0.84-0.66-1.27-0.99c-0.41-0.32-0.83-0.63-1.25-0.94
			c-0.44-0.33-0.88-0.66-1.32-0.99c-0.4-0.29-0.8-0.58-1.21-0.86c-0.92-0.65-1.84-1.3-2.77-1.93c-0.34-0.23-0.67-0.46-1.01-0.68
			c-0.53-0.35-1.07-0.7-1.61-1.05c-0.35-0.22-0.7-0.45-1.05-0.67c-0.55-0.35-1.11-0.69-1.66-1.03c-0.34-0.21-0.67-0.41-1.01-0.61
			c-0.58-0.35-1.16-0.7-1.75-1.04c-0.29-0.17-0.59-0.34-0.88-0.51c-0.64-0.37-1.28-0.73-1.93-1.09c-0.04-0.02-0.08-0.04-0.12-0.06
			c-2.42-1.33-4.89-2.59-7.41-3.79c-0.2-0.1-0.4-0.19-0.6-0.29c-0.74-0.35-1.48-0.69-2.22-1.03c-0.21-0.1-0.43-0.19-0.64-0.29
			c-0.77-0.34-1.54-0.68-2.32-1.02c-0.13-0.06-0.26-0.11-0.39-0.17c-3.59-1.52-7.28-2.93-11.06-4.22c-0.06-0.02-0.11-0.04-0.17-0.06
			c-0.92-0.31-1.84-0.62-2.77-0.91c-0.1-0.03-0.19-0.06-0.29-0.09c-4.92-1.57-10.01-2.95-15.25-4.14c-2.5,1.69-4.98,3.43-7.44,5.2
			c34.78,6.35,73.5,25.71,93.16,47.49c0,0,0-0.01-0.01-0.01c0-0.01-0.01-0.01-0.01-0.02c-0.68-0.89-1.36-1.78-2.06-2.65
			C276.7,137.68,276.69,137.67,276.68,137.66z"/>
		<path class="st2" d="M255.62,59.17c0-0.01,0.01-0.02,0.01-0.03"/>
		<path class="st2" d="M287.18,53.41C287.18,53.41,287.17,53.41,287.18,53.41"/>
		<path class="st3" d="M255.56,59.31L255.56,59.31c0.02-0.04,0.04-0.09,0.07-0.14c-0.01,0.02-0.02,0.05-0.04,0.07
			C255.58,59.27,255.57,59.29,255.56,59.31z"/>
		<path class="st3" d="M256.73,108.3c0.01,0.03,0.03,0.07,0.05,0.11C256.76,108.37,256.74,108.33,256.73,108.3z"/>
		<path class="st3" d="M256.82,108.5c0.01,0.03,0.03,0.06,0.05,0.1C256.85,108.57,256.84,108.53,256.82,108.5z"/>
		<path class="st3" d="M256.78,108.41c0.01,0.03,0.03,0.06,0.04,0.09C256.81,108.46,256.79,108.44,256.78,108.41z"/>
		<path class="st3" d="M208.61,91.91c0.93,0.3,1.85,0.6,2.77,0.91c0.06,0.02,0.11,0.04,0.17,0.06c3.79,1.29,7.47,2.7,11.06,4.22
			c0.13,0.06,0.26,0.11,0.39,0.17c0.78,0.33,1.55,0.67,2.32,1.02c0.21,0.1,0.43,0.19,0.64,0.29c0.75,0.34,1.49,0.68,2.22,1.03
			c0.2,0.1,0.4,0.19,0.6,0.29c2.52,1.2,4.99,2.46,7.41,3.79c0.04,0.02,0.08,0.04,0.12,0.06c0.65,0.36,1.29,0.72,1.93,1.09
			c0.29,0.17,0.59,0.34,0.88,0.51c0.59,0.34,1.17,0.69,1.75,1.04c0.34,0.2,0.68,0.41,1.01,0.61c0.56,0.34,1.11,0.68,1.66,1.03
			c0.35,0.22,0.7,0.45,1.05,0.67c0.54,0.35,1.08,0.69,1.61,1.05c0.34,0.22,0.67,0.46,1.01,0.68c0.93,0.63,1.86,1.28,2.77,1.93
			c0.4,0.29,0.81,0.57,1.21,0.86c0.45,0.33,0.88,0.66,1.32,0.99c0.42,0.31,0.83,0.63,1.25,0.94c0.43,0.33,0.85,0.66,1.27,0.99
			c0.43,0.34,0.85,0.67,1.27,1.01c0.4,0.33,0.8,0.65,1.2,0.98c0.45,0.37,0.9,0.75,1.34,1.13c0.36,0.31,0.73,0.61,1.09,0.93
			c0.61,0.53,1.21,1.07,1.81,1.61c0.36,0.32,0.71,0.64,1.06,0.97c0.59,0.54,1.17,1.09,1.75,1.64c0.31,0.3,0.62,0.6,0.92,0.9
			c0.46,0.45,0.93,0.91,1.38,1.37c0.32,0.32,0.64,0.65,0.95,0.97c0.44,0.46,0.89,0.92,1.33,1.38c0.31,0.32,0.61,0.65,0.92,0.97
			c0.46,0.5,0.92,1.01,1.38,1.52c0.26,0.29,0.53,0.59,0.79,0.88c0.67,0.76,1.33,1.52,1.99,2.3c0.05,0.05,0.09,0.11,0.14,0.16
			c0.66,0.78,1.3,1.57,1.94,2.37c0.12,0.15,0.25,0.3,0.37,0.46c0.7,0.87,1.38,1.76,2.06,2.65c0.01,0.01,0.01,0.02,0.02,0.03
			c5.36-18.94,12.35-35.2,20.87-48.82l-42.79,17.05c-0.03-0.06-0.08-0.16-0.15-0.31l0,0c0,0,0,0.01,0.01,0.01c0,0,0-0.01-0.01-0.01
			l37.25-21.08l-96.74-2.78v-0.35l96.39-2.77l-38.06-22.01c-0.01,0.02-0.01,0.03-0.02,0.04c0.01-0.01,0.01-0.03,0.02-0.04l0,0
			c0.01-0.02,0.02-0.05,0.03-0.07c0.01-0.03,0.03-0.06,0.05-0.1c0.02-0.04,0.04-0.09,0.07-0.14c-0.02,0.03-0.03,0.07-0.05,0.1
			c0.02-0.04,0.04-0.08,0.05-0.1l41.6,17.25l-10.18-22.82c0.02-0.01,0.03-0.02,0.05-0.03c0.07-0.04,0.12-0.07,0.16-0.09
			c0.03-0.02,0.06-0.03,0.09-0.05l16.56,22.22l3.11-23.79h0.08h0.17h0.08l3.24,24.73c9.87-11.63,21.28-20.53,34.14-26.69
			c-12.52-2.16-25.03-3.45-37.55-3.45c-44.45,0-88.47,14.68-127.31,38.84c9.98,1.61,19.43,3.85,28.36,6.69
			C208.42,91.85,208.51,91.88,208.61,91.91z M287.31,53.33c-0.04,0.03-0.09,0.05-0.12,0.07C287.21,53.39,287.25,53.37,287.31,53.33z
			 M255.75,58.91C255.76,58.9,255.76,58.9,255.75,58.91L255.75,58.91z M255.52,59.38c0,0.01-0.01,0.02-0.01,0.02
			C255.51,59.4,255.52,59.39,255.52,59.38z M256.7,108.25c0-0.01-0.01-0.02-0.01-0.02C256.7,108.24,256.7,108.24,256.7,108.25z"/>
		<rect x="307.27" y="85.14" class="st4" width="6.9" height="37.05"/>
		<polygon class="st4" points="340.49,122.19 324.54,103.67 340.49,85.14 331.27,85.14 315.71,103.67 331.27,122.19 		"/>
		<path class="st4" d="M415.49,106.79c5.61,1.74,7.35,2.68,7.35,5.23c0,1.28-0.49,1.84-0.97,2.24c-2.88,2.34-11.25,1.93-16.26,0.9
			l-1.36,6.52c0.8,0.18,4.91,0.98,9.58,0.98c4.32,0,9.14-0.69,12.25-3.23c2.25-1.82,3.44-4.38,3.44-7.42
			c0-7.87-6.97-10.04-12.05-11.62c-5.67-1.74-7.43-2.71-7.43-5.31c0-1.32,0.5-1.88,0.97-2.26c2.84-2.23,11.04-1.51,15.79-0.32
			l1.37-6.55c-1.5-0.37-14.85-3.45-21.28,1.61c-2.3,1.81-3.51,4.4-3.51,7.51C403.37,103.02,410.37,105.19,415.49,106.79z"/>
		<polygon class="st4" points="368.32,92.04 371.18,85.14 343.64,85.14 343.64,122.19 350.54,122.19 350.54,108.15 361.38,108.15 
			364.16,101.43 350.54,101.43 350.54,92.04 		"/>
		<polygon class="st4" points="373.28,114.27 383.07,114.27 385.86,107.55 375.86,107.55 382.02,91.55 393.83,122.19 401.49,122.19 
			386.15,85.14 377.9,85.14 362.56,122.19 370.23,122.19 		"/>
		<polygon class="st4" points="185.38,169.7 184.28,169.7 182.2,172.49 180.96,174.21 180.84,174.21 180.92,172.49 180.92,169.7 
			179.96,169.7 179.96,178.05 180.92,178.05 180.92,175.28 182.01,173.91 184.44,178.05 185.56,178.05 182.63,173.28 		"/>
		<path class="st4" d="M190.02,176.09c0,0.41-0.13,0.72-0.38,0.95c-0.26,0.22-0.57,0.33-0.93,0.33c-0.42,0-0.74-0.13-0.94-0.39
			c-0.2-0.26-0.31-0.64-0.31-1.14v-3.96h-0.91v4.02c0,0.78,0.16,1.36,0.47,1.74c0.32,0.38,0.75,0.56,1.3,0.56
			c0.43,0,0.77-0.1,1.02-0.29c0.25-0.19,0.44-0.48,0.56-0.86h0.12v1.01h0.91v-6.18h-0.91V176.09z"/>
		<polygon class="st4" points="198.43,174.56 197.91,177.25 197.79,177.25 197.18,174.56 196.55,171.88 195.5,171.88 194.88,174.56 
			194.27,177.25 194.15,177.25 193.62,174.56 193.02,171.88 192.13,171.88 193.62,178.05 194.77,178.05 195.52,175.06 195.97,172.8 
			196.09,172.8 196.5,175.06 197.26,178.05 198.41,178.05 199.89,171.88 199.03,171.88 		"/>
		<path class="st4" d="M204.85,173.76c0-0.66-0.18-1.16-0.54-1.5s-0.9-0.51-1.6-0.51c-0.48,0-0.89,0.11-1.25,0.34
			c-0.35,0.23-0.61,0.51-0.77,0.84l0.54,0.5c0.16-0.3,0.35-0.52,0.57-0.68c0.22-0.16,0.51-0.23,0.87-0.23
			c0.44,0,0.76,0.11,0.96,0.32c0.2,0.22,0.31,0.55,0.31,1.01v0.68h-1.11c-0.81,0-1.4,0.17-1.78,0.5c-0.38,0.34-0.57,0.79-0.57,1.37
			c0,0.59,0.15,1.04,0.44,1.34c0.3,0.3,0.74,0.46,1.34,0.46c0.38,0,0.71-0.1,0.99-0.3c0.28-0.2,0.46-0.49,0.57-0.86h0.12v0.12
			c0,0.6,0.3,0.9,0.89,0.9h0.65v-0.8h-0.62V173.76z M203.94,176.16c0,0.16-0.04,0.31-0.11,0.46c-0.07,0.15-0.17,0.28-0.3,0.39
			c-0.13,0.11-0.28,0.21-0.46,0.28c-0.18,0.07-0.37,0.11-0.58,0.11c-0.33,0-0.59-0.07-0.78-0.22c-0.19-0.15-0.29-0.37-0.29-0.68
			v-0.33c0-0.3,0.11-0.53,0.33-0.69c0.22-0.16,0.57-0.24,1.05-0.24h1.14V176.16z"/>
		<path class="st4" d="M207.14,169.21c-0.38,0-0.56,0.16-0.56,0.49v0.19c0,0.33,0.19,0.49,0.56,0.49c0.37,0,0.56-0.16,0.56-0.49
			v-0.19C207.7,169.37,207.51,169.21,207.14,169.21z"/>
		<rect x="206.68" y="171.88" class="st4" width="0.91" height="6.18"/>
		<path class="st4" d="M210.61,170.18h-0.83v1.15c0,0.18-0.03,0.32-0.09,0.41c-0.06,0.09-0.18,0.14-0.37,0.14h-0.54v0.8h0.91v4.44
			c0,0.33,0.07,0.56,0.22,0.71c0.15,0.15,0.39,0.22,0.71,0.22h1.11v-0.8h-1.14v-4.57h1.2v-0.8h-1.2V170.18z"/>
		<polygon class="st4" points="215.77,178.05 216.73,178.05 216.73,174.25 219.96,174.25 219.96,173.4 216.73,173.4 216.73,170.55 
			220.28,170.55 220.28,169.7 215.77,169.7 		"/>
		<path class="st4" d="M225.31,172.49c-0.22-0.26-0.49-0.45-0.8-0.57c-0.31-0.12-0.65-0.18-1.01-0.18c-0.36,0-0.69,0.06-1.01,0.18
			c-0.31,0.12-0.58,0.31-0.8,0.57c-0.22,0.26-0.4,0.6-0.53,1.01c-0.13,0.41-0.19,0.9-0.19,1.47c0,0.57,0.06,1.07,0.19,1.47
			c0.13,0.41,0.3,0.74,0.53,1.01c0.22,0.26,0.49,0.46,0.8,0.57c0.31,0.12,0.65,0.18,1.01,0.18c0.36,0,0.69-0.06,1.01-0.18
			c0.31-0.12,0.58-0.31,0.8-0.57c0.22-0.26,0.4-0.6,0.53-1.01c0.13-0.41,0.19-0.9,0.19-1.47c0-0.57-0.06-1.07-0.19-1.47
			C225.71,173.09,225.54,172.75,225.31,172.49z M225.05,175.59c0,0.61-0.13,1.06-0.4,1.36c-0.27,0.3-0.65,0.44-1.14,0.44
			c-0.49,0-0.88-0.15-1.14-0.44c-0.27-0.3-0.4-0.75-0.4-1.36v-1.25c0-0.61,0.13-1.06,0.4-1.36c0.27-0.3,0.65-0.45,1.14-0.45
			c0.49,0,0.88,0.15,1.14,0.45c0.27,0.3,0.4,0.75,0.4,1.36V175.59z"/>
		<path class="st4" d="M230.82,176.09c0,0.41-0.13,0.72-0.38,0.95c-0.26,0.22-0.57,0.33-0.93,0.33c-0.42,0-0.74-0.13-0.94-0.39
			c-0.2-0.26-0.31-0.64-0.31-1.14v-3.96h-0.91v4.02c0,0.78,0.16,1.36,0.47,1.74c0.32,0.38,0.75,0.56,1.3,0.56
			c0.43,0,0.77-0.1,1.02-0.29c0.25-0.19,0.44-0.48,0.56-0.86h0.12v1.01h0.91v-6.18h-0.91V176.09z"/>
		<path class="st4" d="M236.14,171.73c-0.43,0-0.77,0.1-1.02,0.29c-0.25,0.19-0.44,0.48-0.56,0.86h-0.12v-1.01h-0.91v6.18h0.91
			v-4.21c0-0.41,0.13-0.72,0.38-0.95c0.26-0.22,0.57-0.34,0.93-0.34c0.42,0,0.74,0.13,0.94,0.4c0.2,0.26,0.31,0.64,0.31,1.14v3.96
			h0.91v-4.02c0-0.78-0.16-1.36-0.47-1.74C237.12,171.92,236.69,171.73,236.14,171.73z"/>
		<path class="st4" d="M243.19,172.87h-0.12c-0.12-0.4-0.31-0.69-0.58-0.87c-0.27-0.18-0.59-0.27-0.98-0.27
			c-0.37,0-0.69,0.08-0.97,0.23c-0.28,0.15-0.51,0.37-0.71,0.65c-0.19,0.28-0.34,0.62-0.43,1.02c-0.1,0.4-0.14,0.85-0.14,1.34
			c0,0.5,0.05,0.94,0.14,1.34c0.1,0.4,0.24,0.74,0.43,1.02c0.19,0.28,0.43,0.5,0.71,0.65c0.28,0.15,0.6,0.23,0.97,0.23
			c0.38,0,0.71-0.09,0.98-0.27c0.27-0.18,0.46-0.47,0.58-0.87h0.12v0.99h0.91v-8.86h-0.91V172.87z M243.19,176.22
			c0,0.18-0.04,0.34-0.11,0.48c-0.08,0.14-0.18,0.27-0.3,0.37c-0.12,0.1-0.27,0.18-0.44,0.24c-0.17,0.06-0.35,0.08-0.54,0.08
			c-0.5,0-0.89-0.16-1.15-0.47c-0.26-0.32-0.4-0.76-0.4-1.33v-1.25c0-0.57,0.13-1.01,0.4-1.33c0.26-0.32,0.65-0.48,1.15-0.48
			c0.19,0,0.37,0.03,0.54,0.08c0.17,0.06,0.32,0.14,0.44,0.24c0.12,0.1,0.22,0.23,0.3,0.37c0.08,0.14,0.11,0.3,0.11,0.48V176.22z"/>
		<path class="st4" d="M249.82,173.76c0-0.66-0.18-1.16-0.54-1.5c-0.36-0.34-0.9-0.51-1.6-0.51c-0.48,0-0.89,0.11-1.25,0.34
			c-0.35,0.23-0.61,0.51-0.77,0.84l0.54,0.5c0.16-0.3,0.35-0.52,0.57-0.68c0.22-0.16,0.51-0.23,0.87-0.23
			c0.44,0,0.76,0.11,0.96,0.32c0.2,0.22,0.31,0.55,0.31,1.01v0.68h-1.11c-0.81,0-1.4,0.17-1.78,0.5c-0.38,0.34-0.57,0.79-0.57,1.37
			c0,0.59,0.15,1.04,0.44,1.34c0.3,0.3,0.74,0.46,1.34,0.46c0.38,0,0.71-0.1,0.99-0.3c0.28-0.2,0.46-0.49,0.57-0.86h0.12v0.12
			c0,0.6,0.3,0.9,0.89,0.9h0.65v-0.8h-0.62V173.76z M248.91,176.16c0,0.16-0.04,0.31-0.11,0.46c-0.07,0.15-0.17,0.28-0.3,0.39
			c-0.13,0.11-0.28,0.21-0.46,0.28c-0.18,0.07-0.37,0.11-0.58,0.11c-0.33,0-0.59-0.07-0.78-0.22c-0.19-0.15-0.29-0.37-0.29-0.68
			v-0.33c0-0.3,0.11-0.53,0.33-0.69c0.22-0.16,0.57-0.24,1.05-0.24h1.14V176.16z"/>
		<path class="st4" d="M252.86,170.18h-0.83v1.15c0,0.18-0.03,0.32-0.09,0.41c-0.06,0.09-0.18,0.14-0.37,0.14h-0.54v0.8h0.91v4.44
			c0,0.33,0.07,0.56,0.22,0.71c0.15,0.15,0.39,0.22,0.71,0.22H254v-0.8h-1.14v-4.57h1.2v-0.8h-1.2V170.18z"/>
		<rect x="255.42" y="171.88" class="st4" width="0.91" height="6.18"/>
		<path class="st4" d="M255.88,169.21c-0.38,0-0.56,0.16-0.56,0.49v0.19c0,0.33,0.19,0.49,0.56,0.49c0.37,0,0.56-0.16,0.56-0.49
			v-0.19C256.44,169.37,256.25,169.21,255.88,169.21z"/>
		<path class="st4" d="M262.04,172.49c-0.22-0.26-0.49-0.45-0.8-0.57c-0.31-0.12-0.65-0.18-1.01-0.18c-0.36,0-0.69,0.06-1.01,0.18
			c-0.31,0.12-0.58,0.31-0.8,0.57c-0.22,0.26-0.4,0.6-0.53,1.01c-0.13,0.41-0.19,0.9-0.19,1.47c0,0.57,0.06,1.07,0.19,1.47
			c0.13,0.41,0.3,0.74,0.53,1.01c0.22,0.26,0.49,0.46,0.8,0.57c0.31,0.12,0.65,0.18,1.01,0.18c0.36,0,0.69-0.06,1.01-0.18
			c0.31-0.12,0.58-0.31,0.8-0.57c0.22-0.26,0.4-0.6,0.53-1.01c0.13-0.41,0.19-0.9,0.19-1.47c0-0.57-0.06-1.07-0.19-1.47
			C262.44,173.09,262.27,172.75,262.04,172.49z M261.78,175.59c0,0.61-0.13,1.06-0.4,1.36c-0.27,0.3-0.65,0.44-1.14,0.44
			c-0.49,0-0.88-0.15-1.14-0.44c-0.27-0.3-0.4-0.75-0.4-1.36v-1.25c0-0.61,0.13-1.06,0.4-1.36c0.27-0.3,0.65-0.45,1.14-0.45
			c0.49,0,0.88,0.15,1.14,0.45c0.27,0.3,0.4,0.75,0.4,1.36V175.59z"/>
		<path class="st4" d="M266.75,171.73c-0.43,0-0.77,0.1-1.02,0.29c-0.25,0.19-0.44,0.48-0.56,0.86h-0.12v-1.01h-0.91v6.18h0.91
			v-4.21c0-0.41,0.13-0.72,0.38-0.95c0.26-0.22,0.57-0.34,0.93-0.34c0.42,0,0.74,0.13,0.94,0.4c0.2,0.26,0.31,0.64,0.31,1.14v3.96
			h0.91v-4.02c0-0.78-0.16-1.36-0.47-1.74C267.73,171.92,267.3,171.73,266.75,171.73z"/>
		<path class="st4" d="M273.35,169.48c-0.19,0.19-0.28,0.48-0.28,0.89v1.51h-0.9v0.8h0.9v5.38h0.91v-5.38h1.19v-0.8h-1.19V170h1.19
			v-0.8h-0.92C273.84,169.19,273.54,169.29,273.35,169.48z"/>
		<path class="st4" d="M280.12,172.49c-0.22-0.26-0.49-0.45-0.8-0.57c-0.31-0.12-0.65-0.18-1.01-0.18c-0.36,0-0.69,0.06-1.01,0.18
			c-0.31,0.12-0.58,0.31-0.8,0.57c-0.22,0.26-0.4,0.6-0.53,1.01c-0.13,0.41-0.19,0.9-0.19,1.47c0,0.57,0.06,1.07,0.19,1.47
			c0.13,0.41,0.3,0.74,0.53,1.01c0.22,0.26,0.49,0.46,0.8,0.57c0.31,0.12,0.65,0.18,1.01,0.18c0.36,0,0.69-0.06,1.01-0.18
			c0.31-0.12,0.58-0.31,0.8-0.57c0.22-0.26,0.4-0.6,0.53-1.01c0.13-0.41,0.19-0.9,0.19-1.47c0-0.57-0.06-1.07-0.19-1.47
			C280.52,173.09,280.35,172.75,280.12,172.49z M279.86,175.59c0,0.61-0.13,1.06-0.4,1.36c-0.27,0.3-0.65,0.44-1.14,0.44
			c-0.49,0-0.88-0.15-1.14-0.44c-0.27-0.3-0.4-0.75-0.4-1.36v-1.25c0-0.61,0.13-1.06,0.4-1.36c0.27-0.3,0.65-0.45,1.14-0.45
			c0.49,0,0.88,0.15,1.14,0.45c0.27,0.3,0.4,0.75,0.4,1.36V175.59z"/>
		<path class="st4" d="M283.78,172.18c-0.25,0.2-0.43,0.49-0.53,0.84h-0.12v-1.15h-0.91v6.18h0.91v-4.11c0-0.38,0.12-0.67,0.36-0.86
			c0.24-0.19,0.58-0.29,1.01-0.29h0.6v-0.92h-0.34C284.36,171.88,284.03,171.98,283.78,172.18z"/>
		<path class="st4" d="M289.91,170.18h-0.83v1.15c0,0.18-0.03,0.32-0.09,0.41c-0.06,0.09-0.18,0.14-0.37,0.14h-0.54v0.8H289v4.44
			c0,0.33,0.07,0.56,0.22,0.71c0.15,0.15,0.39,0.22,0.71,0.22h1.11v-0.8h-1.14v-4.57h1.2v-0.8h-1.2V170.18z"/>
		<path class="st4" d="M295.08,171.73c-0.43,0-0.77,0.1-1.02,0.29c-0.25,0.19-0.44,0.48-0.56,0.86h-0.12v-3.69h-0.91v8.86h0.91
			v-4.21c0-0.41,0.13-0.72,0.38-0.95c0.26-0.22,0.57-0.34,0.93-0.34c0.42,0,0.74,0.13,0.94,0.4c0.2,0.26,0.31,0.64,0.31,1.14v3.96
			h0.91v-4.02c0-0.78-0.16-1.36-0.47-1.74C296.06,171.92,295.63,171.73,295.08,171.73z"/>
		<path class="st4" d="M302.44,172.49c-0.21-0.26-0.46-0.45-0.76-0.57c-0.3-0.12-0.63-0.18-0.99-0.18c-0.36,0-0.69,0.06-1.01,0.18
			c-0.31,0.12-0.58,0.31-0.8,0.57c-0.22,0.26-0.4,0.6-0.53,1.01c-0.13,0.41-0.19,0.9-0.19,1.47c0,0.57,0.06,1.07,0.19,1.47
			c0.13,0.41,0.3,0.74,0.53,1.01c0.22,0.26,0.49,0.46,0.8,0.57c0.31,0.12,0.65,0.18,1.01,0.18c0.57,0,1.05-0.13,1.42-0.4
			c0.37-0.26,0.65-0.61,0.84-1.03l-0.62-0.45c-0.15,0.36-0.36,0.63-0.62,0.81c-0.26,0.18-0.6,0.27-1.02,0.27
			c-0.49,0-0.87-0.15-1.14-0.45c-0.28-0.3-0.41-0.75-0.41-1.36v-0.39h3.96v-0.23c0-0.57-0.06-1.07-0.17-1.47
			C302.81,173.09,302.65,172.75,302.44,172.49z M302.13,174.5h-2.99v-0.16c0-0.61,0.14-1.07,0.41-1.38
			c0.27-0.31,0.65-0.47,1.15-0.47c0.96,0,1.44,0.61,1.44,1.84V174.5z"/>
		<path class="st4" d="M308.95,169.7l-2.61,8.36h0.96l0.74-2.5h3.01l0.74,2.5h0.98l-2.62-8.36H308.95z M308.27,174.76l0.95-3.17
			l0.26-1.04h0.12l0.26,1.04l0.97,3.17H308.27z"/>
		<path class="st4" d="M317.42,172.87h-0.12c-0.12-0.4-0.31-0.69-0.58-0.87c-0.27-0.18-0.59-0.27-0.98-0.27
			c-0.37,0-0.69,0.08-0.97,0.23c-0.28,0.15-0.51,0.37-0.71,0.65c-0.19,0.28-0.34,0.62-0.43,1.02c-0.1,0.4-0.14,0.85-0.14,1.34
			c0,0.5,0.05,0.94,0.14,1.34c0.1,0.4,0.24,0.74,0.43,1.02c0.19,0.28,0.43,0.5,0.71,0.65c0.28,0.15,0.6,0.23,0.97,0.23
			c0.38,0,0.71-0.09,0.98-0.27c0.27-0.18,0.46-0.47,0.58-0.87h0.12v0.99h0.91v-8.86h-0.91V172.87z M317.42,176.22
			c0,0.18-0.04,0.34-0.11,0.48c-0.08,0.14-0.18,0.27-0.3,0.37c-0.12,0.1-0.27,0.18-0.44,0.24c-0.17,0.06-0.35,0.08-0.54,0.08
			c-0.5,0-0.89-0.16-1.15-0.47c-0.26-0.32-0.4-0.76-0.4-1.33v-1.25c0-0.57,0.13-1.01,0.4-1.33c0.26-0.32,0.65-0.48,1.15-0.48
			c0.19,0,0.37,0.03,0.54,0.08c0.17,0.06,0.32,0.14,0.44,0.24c0.12,0.1,0.22,0.23,0.3,0.37c0.08,0.14,0.11,0.3,0.11,0.48V176.22z"/>
		<polygon class="st4" points="322.53,174.99 321.96,177.25 321.84,177.25 321.26,174.99 320.32,171.88 319.41,171.88 
			321.35,178.05 322.42,178.05 324.36,171.88 323.48,171.88 		"/>
		<path class="st4" d="M329.24,173.76c0-0.66-0.18-1.16-0.54-1.5c-0.36-0.34-0.9-0.51-1.6-0.51c-0.48,0-0.89,0.11-1.25,0.34
			c-0.35,0.23-0.61,0.51-0.77,0.84l0.54,0.5c0.16-0.3,0.35-0.52,0.57-0.68c0.22-0.16,0.51-0.23,0.87-0.23
			c0.44,0,0.76,0.11,0.96,0.32c0.2,0.22,0.31,0.55,0.31,1.01v0.68h-1.11c-0.81,0-1.4,0.17-1.78,0.5c-0.38,0.34-0.57,0.79-0.57,1.37
			c0,0.59,0.15,1.04,0.44,1.34c0.3,0.3,0.74,0.46,1.34,0.46c0.38,0,0.71-0.1,0.99-0.3c0.28-0.2,0.46-0.49,0.57-0.86h0.12v0.12
			c0,0.6,0.3,0.9,0.89,0.9h0.65v-0.8h-0.62V173.76z M328.33,176.16c0,0.16-0.04,0.31-0.11,0.46c-0.07,0.15-0.17,0.28-0.3,0.39
			c-0.13,0.11-0.28,0.21-0.46,0.28c-0.18,0.07-0.37,0.11-0.58,0.11c-0.33,0-0.59-0.07-0.78-0.22c-0.19-0.15-0.29-0.37-0.29-0.68
			v-0.33c0-0.3,0.11-0.53,0.33-0.69c0.22-0.16,0.57-0.24,1.05-0.24h1.14V176.16z"/>
		<path class="st4" d="M333.68,171.73c-0.43,0-0.77,0.1-1.02,0.29c-0.25,0.19-0.44,0.48-0.56,0.86h-0.12v-1.01h-0.91v6.18h0.91
			v-4.21c0-0.41,0.13-0.72,0.38-0.95s0.57-0.34,0.93-0.34c0.42,0,0.74,0.13,0.94,0.4c0.2,0.26,0.31,0.64,0.31,1.14v3.96h0.91v-4.02
			c0-0.78-0.16-1.36-0.47-1.74C334.66,171.92,334.23,171.73,333.68,171.73z"/>
		<path class="st4" d="M340.19,177.13c-0.24,0.18-0.56,0.26-0.96,0.26c-0.5,0-0.87-0.15-1.11-0.44c-0.24-0.3-0.36-0.75-0.36-1.36
			v-1.25c0-0.61,0.12-1.06,0.36-1.36c0.24-0.3,0.61-0.45,1.11-0.45c0.38,0,0.69,0.09,0.91,0.26c0.22,0.17,0.39,0.42,0.49,0.74
			l0.75-0.38c-0.16-0.41-0.41-0.75-0.76-1.02c-0.35-0.26-0.81-0.4-1.39-0.4c-0.77,0-1.37,0.25-1.8,0.75
			c-0.43,0.5-0.65,1.33-0.65,2.48c0,1.15,0.22,1.98,0.65,2.48c0.44,0.5,1.04,0.75,1.8,0.75c0.55,0,1.01-0.13,1.38-0.38
			c0.37-0.25,0.65-0.59,0.83-1.02l-0.67-0.47C340.62,176.69,340.43,176.96,340.19,177.13z"/>
		<path class="st4" d="M346.37,172.49c-0.21-0.26-0.46-0.45-0.76-0.57c-0.3-0.12-0.63-0.18-0.99-0.18c-0.36,0-0.69,0.06-1.01,0.18
			c-0.31,0.12-0.58,0.31-0.8,0.57c-0.22,0.26-0.4,0.6-0.53,1.01c-0.13,0.41-0.19,0.9-0.19,1.47c0,0.57,0.06,1.07,0.19,1.47
			c0.13,0.41,0.3,0.74,0.53,1.01c0.22,0.26,0.49,0.46,0.8,0.57c0.31,0.12,0.65,0.18,1.01,0.18c0.57,0,1.05-0.13,1.42-0.4
			c0.37-0.26,0.65-0.61,0.84-1.03l-0.62-0.45c-0.15,0.36-0.36,0.63-0.62,0.81c-0.26,0.18-0.6,0.27-1.02,0.27
			c-0.49,0-0.87-0.15-1.14-0.45c-0.28-0.3-0.41-0.75-0.41-1.36v-0.39h3.96v-0.23c0-0.57-0.06-1.07-0.17-1.47
			C346.74,173.09,346.58,172.75,346.37,172.49z M346.06,174.5h-2.99v-0.16c0-0.61,0.14-1.07,0.41-1.38
			c0.27-0.31,0.65-0.47,1.15-0.47c0.96,0,1.44,0.61,1.44,1.84V174.5z"/>
		<path class="st4" d="M354.33,171.73c-0.45,0-0.81,0.1-1.08,0.29c-0.27,0.19-0.47,0.48-0.6,0.86h-0.12
			c-0.14-0.39-0.34-0.68-0.6-0.87c-0.27-0.19-0.59-0.28-0.98-0.28c-0.42,0-0.75,0.1-0.98,0.29c-0.23,0.19-0.41,0.48-0.53,0.86h-0.12
			v-1.01h-0.91v6.18h0.91v-4.21c0-0.41,0.12-0.72,0.37-0.95c0.24-0.22,0.55-0.34,0.9-0.34c0.41,0,0.71,0.13,0.9,0.4
			c0.2,0.26,0.29,0.64,0.29,1.14v3.96h0.91v-4.21c0-0.41,0.12-0.72,0.37-0.95c0.24-0.22,0.54-0.34,0.9-0.34
			c0.41,0,0.71,0.13,0.9,0.4c0.2,0.26,0.29,0.64,0.29,1.14v3.96h0.91v-4.02c0-0.78-0.16-1.36-0.48-1.74
			C355.28,171.92,354.86,171.73,354.33,171.73z"/>
		<path class="st4" d="M361.67,172.49c-0.21-0.26-0.46-0.45-0.76-0.57c-0.3-0.12-0.63-0.18-0.99-0.18c-0.36,0-0.69,0.06-1.01,0.18
			c-0.31,0.12-0.58,0.31-0.8,0.57c-0.22,0.26-0.4,0.6-0.53,1.01c-0.13,0.41-0.19,0.9-0.19,1.47c0,0.57,0.06,1.07,0.19,1.47
			c0.13,0.41,0.3,0.74,0.53,1.01c0.22,0.26,0.49,0.46,0.8,0.57c0.31,0.12,0.65,0.18,1.01,0.18c0.57,0,1.05-0.13,1.42-0.4
			c0.37-0.26,0.65-0.61,0.84-1.03l-0.62-0.45c-0.15,0.36-0.36,0.63-0.62,0.81c-0.26,0.18-0.6,0.27-1.02,0.27
			c-0.49,0-0.87-0.15-1.14-0.45c-0.28-0.3-0.41-0.75-0.41-1.36v-0.39h3.96v-0.23c0-0.57-0.06-1.07-0.17-1.47
			C362.04,173.09,361.88,172.75,361.67,172.49z M361.36,174.5h-2.99v-0.16c0-0.61,0.14-1.07,0.41-1.38
			c0.27-0.31,0.65-0.47,1.15-0.47c0.96,0,1.44,0.61,1.44,1.84V174.5z"/>
		<path class="st4" d="M366.33,171.73c-0.43,0-0.77,0.1-1.02,0.29c-0.25,0.19-0.44,0.48-0.56,0.86h-0.12v-1.01h-0.91v6.18h0.91
			v-4.21c0-0.41,0.13-0.72,0.38-0.95s0.57-0.34,0.93-0.34c0.42,0,0.74,0.13,0.94,0.4c0.2,0.26,0.31,0.64,0.31,1.14v3.96h0.91v-4.02
			c0-0.78-0.16-1.36-0.47-1.74C367.31,171.92,366.88,171.73,366.33,171.73z"/>
		<path class="st4" d="M371.06,170.18h-0.83v1.15c0,0.18-0.03,0.32-0.09,0.41c-0.06,0.09-0.18,0.14-0.37,0.14h-0.54v0.8h0.91v4.44
			c0,0.33,0.07,0.56,0.22,0.71c0.15,0.15,0.39,0.22,0.71,0.22h1.11v-0.8h-1.14v-4.57h1.2v-0.8h-1.2V170.18z"/>
		<path class="st4" d="M380.05,172.49c-0.22-0.26-0.49-0.45-0.8-0.57c-0.31-0.12-0.65-0.18-1.01-0.18c-0.36,0-0.69,0.06-1.01,0.18
			c-0.31,0.12-0.58,0.31-0.8,0.57c-0.22,0.26-0.4,0.6-0.53,1.01c-0.13,0.41-0.19,0.9-0.19,1.47c0,0.57,0.06,1.07,0.19,1.47
			c0.13,0.41,0.3,0.74,0.53,1.01c0.22,0.26,0.49,0.46,0.8,0.57c0.31,0.12,0.65,0.18,1.01,0.18c0.36,0,0.69-0.06,1.01-0.18
			c0.31-0.12,0.58-0.31,0.8-0.57c0.22-0.26,0.4-0.6,0.53-1.01c0.13-0.41,0.19-0.9,0.19-1.47c0-0.57-0.06-1.07-0.19-1.47
			C380.45,173.09,380.27,172.75,380.05,172.49z M379.79,175.59c0,0.61-0.13,1.06-0.4,1.36c-0.27,0.3-0.65,0.44-1.14,0.44
			c-0.49,0-0.88-0.15-1.14-0.44c-0.27-0.3-0.4-0.75-0.4-1.36v-1.25c0-0.61,0.13-1.06,0.4-1.36c0.27-0.3,0.65-0.45,1.14-0.45
			c0.49,0,0.88,0.15,1.14,0.45c0.27,0.3,0.4,0.75,0.4,1.36V175.59z"/>
		<path class="st4" d="M382.69,169.48c-0.19,0.19-0.28,0.48-0.28,0.89v1.51h-0.9v0.8h0.9v5.38h0.91v-5.38h1.19v-0.8h-1.19V170h1.19
			v-0.8h-0.92C383.17,169.19,382.88,169.29,382.69,169.48z"/>
		<path class="st4" d="M392.48,174.2c-0.17-0.19-0.39-0.35-0.66-0.48c-0.27-0.13-0.6-0.25-0.99-0.34l-0.62-0.16
			c-0.49-0.12-0.84-0.28-1.06-0.49c-0.22-0.21-0.33-0.51-0.33-0.92c0-0.5,0.13-0.87,0.4-1.09c0.27-0.22,0.66-0.34,1.17-0.34
			c0.45,0,0.82,0.09,1.1,0.26c0.28,0.17,0.52,0.42,0.74,0.76l0.71-0.5c-0.3-0.46-0.64-0.8-1.04-1.02c-0.4-0.22-0.88-0.32-1.47-0.32
			c-0.77,0-1.38,0.19-1.84,0.57c-0.46,0.38-0.69,0.94-0.69,1.68c0,0.65,0.17,1.15,0.52,1.5c0.35,0.36,0.89,0.62,1.62,0.81l0.62,0.16
			c0.51,0.13,0.87,0.3,1.08,0.53c0.21,0.22,0.31,0.55,0.31,0.98c0,1.06-0.57,1.59-1.7,1.59c-0.43,0-0.81-0.1-1.13-0.3
			c-0.32-0.2-0.61-0.49-0.86-0.87l-0.69,0.57c0.3,0.45,0.67,0.8,1.11,1.05c0.45,0.25,0.97,0.38,1.57,0.38
			c0.82,0,1.47-0.21,1.93-0.62c0.47-0.41,0.7-1.01,0.7-1.8c0-0.34-0.04-0.64-0.11-0.9C392.78,174.62,392.66,174.39,392.48,174.2z"/>
		<path class="st4" d="M397.38,177.13c-0.24,0.18-0.56,0.26-0.96,0.26c-0.5,0-0.87-0.15-1.11-0.44c-0.24-0.3-0.36-0.75-0.36-1.36
			v-1.25c0-0.61,0.12-1.06,0.36-1.36c0.24-0.3,0.61-0.45,1.11-0.45c0.38,0,0.69,0.09,0.91,0.26c0.22,0.17,0.39,0.42,0.49,0.74
			l0.75-0.38c-0.16-0.41-0.41-0.75-0.76-1.02c-0.35-0.26-0.81-0.4-1.39-0.4c-0.77,0-1.37,0.25-1.8,0.75
			c-0.44,0.5-0.65,1.33-0.65,2.48c0,1.15,0.22,1.98,0.65,2.48c0.43,0.5,1.04,0.75,1.8,0.75c0.55,0,1.01-0.13,1.38-0.38
			c0.37-0.25,0.65-0.59,0.83-1.02l-0.67-0.47C397.82,176.69,397.62,176.96,397.38,177.13z"/>
		<rect x="399.79" y="171.88" class="st4" width="0.91" height="6.18"/>
		<path class="st4" d="M400.25,169.21c-0.38,0-0.56,0.16-0.56,0.49v0.19c0,0.33,0.19,0.49,0.56,0.49c0.37,0,0.56-0.16,0.56-0.49
			v-0.19C400.81,169.37,400.62,169.21,400.25,169.21z"/>
		<path class="st4" d="M406.35,172.49c-0.21-0.26-0.46-0.45-0.76-0.57c-0.3-0.12-0.63-0.18-0.99-0.18c-0.36,0-0.69,0.06-1.01,0.18
			c-0.31,0.12-0.58,0.31-0.8,0.57c-0.22,0.26-0.4,0.6-0.53,1.01c-0.13,0.41-0.19,0.9-0.19,1.47c0,0.57,0.06,1.07,0.19,1.47
			c0.13,0.41,0.3,0.74,0.53,1.01c0.22,0.26,0.49,0.46,0.8,0.57c0.31,0.12,0.65,0.18,1.01,0.18c0.57,0,1.05-0.13,1.42-0.4
			c0.37-0.26,0.65-0.61,0.84-1.03l-0.62-0.45c-0.15,0.36-0.36,0.63-0.62,0.81c-0.26,0.18-0.6,0.27-1.02,0.27
			c-0.49,0-0.87-0.15-1.14-0.45c-0.28-0.3-0.41-0.75-0.41-1.36v-0.39h3.96v-0.23c0-0.57-0.06-1.07-0.17-1.47
			C406.72,173.09,406.56,172.75,406.35,172.49z M406.04,174.5h-2.99v-0.16c0-0.61,0.14-1.07,0.41-1.38
			c0.27-0.31,0.65-0.47,1.15-0.47c0.96,0,1.44,0.61,1.44,1.84V174.5z"/>
		<path class="st4" d="M411.01,171.73c-0.43,0-0.77,0.1-1.02,0.29c-0.25,0.19-0.44,0.48-0.56,0.86h-0.12v-1.01h-0.91v6.18h0.91
			v-4.21c0-0.41,0.13-0.72,0.38-0.95c0.26-0.22,0.57-0.34,0.93-0.34c0.42,0,0.74,0.13,0.94,0.4c0.2,0.26,0.31,0.64,0.31,1.14v3.96
			h0.91v-4.02c0-0.78-0.16-1.36-0.47-1.74C412,171.92,411.56,171.73,411.01,171.73z"/>
		<path class="st4" d="M417.52,177.13c-0.24,0.18-0.56,0.26-0.96,0.26c-0.5,0-0.87-0.15-1.11-0.44c-0.24-0.3-0.36-0.75-0.36-1.36
			v-1.25c0-0.61,0.12-1.06,0.36-1.36c0.24-0.3,0.61-0.45,1.11-0.45c0.38,0,0.69,0.09,0.91,0.26c0.22,0.17,0.39,0.42,0.49,0.74
			l0.75-0.38c-0.16-0.41-0.41-0.75-0.76-1.02c-0.35-0.26-0.81-0.4-1.39-0.4c-0.77,0-1.37,0.25-1.8,0.75
			c-0.44,0.5-0.65,1.33-0.65,2.48c0,1.15,0.22,1.98,0.65,2.48c0.43,0.5,1.04,0.75,1.8,0.75c0.55,0,1.01-0.13,1.38-0.38
			c0.37-0.25,0.65-0.59,0.83-1.02l-0.67-0.47C417.96,176.69,417.76,176.96,417.52,177.13z"/>
		<path class="st4" d="M423.7,172.49c-0.21-0.26-0.46-0.45-0.76-0.57c-0.3-0.12-0.63-0.18-0.99-0.18c-0.36,0-0.69,0.06-1.01,0.18
			c-0.31,0.12-0.58,0.31-0.8,0.57c-0.22,0.26-0.4,0.6-0.53,1.01c-0.13,0.41-0.19,0.9-0.19,1.47c0,0.57,0.06,1.07,0.19,1.47
			c0.13,0.41,0.3,0.74,0.53,1.01c0.22,0.26,0.49,0.46,0.8,0.57c0.31,0.12,0.65,0.18,1.01,0.18c0.57,0,1.05-0.13,1.42-0.4
			c0.37-0.26,0.65-0.61,0.84-1.03l-0.62-0.45c-0.15,0.36-0.36,0.63-0.62,0.81c-0.26,0.18-0.6,0.27-1.02,0.27
			c-0.49,0-0.87-0.15-1.14-0.45c-0.28-0.3-0.41-0.75-0.41-1.36v-0.39h3.96v-0.23c0-0.57-0.06-1.07-0.17-1.47
			C424.07,173.09,423.91,172.75,423.7,172.49z M423.39,174.5h-2.99v-0.16c0-0.61,0.14-1.07,0.41-1.38c0.27-0.31,0.65-0.47,1.15-0.47
			c0.96,0,1.44,0.61,1.44,1.84V174.5z"/>
		<path class="st4" d="M427.79,174.56l-0.47-0.08c-0.35-0.06-0.6-0.17-0.76-0.31c-0.16-0.14-0.23-0.36-0.23-0.66
			c0-0.66,0.36-0.99,1.09-0.99c0.35,0,0.64,0.07,0.86,0.22c0.22,0.15,0.4,0.32,0.54,0.51l0.59-0.54c-0.23-0.31-0.51-0.55-0.82-0.71
			c-0.32-0.16-0.7-0.25-1.17-0.25c-0.29,0-0.55,0.03-0.8,0.1c-0.24,0.07-0.45,0.18-0.63,0.32c-0.18,0.15-0.31,0.33-0.41,0.56
			c-0.1,0.23-0.14,0.5-0.14,0.81c0,0.53,0.15,0.93,0.44,1.2c0.29,0.26,0.74,0.45,1.34,0.56l0.47,0.08c0.37,0.06,0.62,0.18,0.75,0.35
			c0.14,0.17,0.2,0.39,0.2,0.66c0,0.34-0.11,0.59-0.32,0.77c-0.21,0.18-0.5,0.27-0.86,0.27c-0.35,0-0.65-0.08-0.9-0.24
			c-0.25-0.16-0.49-0.39-0.7-0.69l-0.63,0.53c0.26,0.37,0.56,0.65,0.93,0.86c0.36,0.21,0.8,0.31,1.31,0.31
			c0.68,0,1.19-0.17,1.54-0.51c0.35-0.34,0.52-0.81,0.52-1.41c0-0.48-0.13-0.86-0.4-1.14C428.86,174.87,428.42,174.67,427.79,174.56
			z"/>
		<path class="st4" d="M368.79,146.98c-0.5,0-0.83,0.28-0.83,0.94c0,0.65,0.33,0.94,0.83,0.94h0.25c0.5,0,0.84-0.3,0.84-0.94
			c0-0.66-0.35-0.94-0.84-0.94H368.79z"/>
		<path class="st4" d="M366.15,146.98c-0.5,0-0.83,0.28-0.83,0.94c0,0.65,0.33,0.94,0.83,0.94h0.25c0.5,0,0.84-0.3,0.84-0.94
			c0-0.66-0.35-0.94-0.84-0.94H366.15z"/>
		<path class="st4" d="M410.18,156.14c0-0.48-0.05-1.09-0.13-1.75l-0.13-0.86l-1.42,0.22l0.15,0.88c0.1,0.66,0.15,1.19,0.15,1.52
			c0,0.74-0.33,1.08-0.94,1.08h-0.25c-0.71,0-1.03-0.41-1.03-1.49v-1.19h-1.44v1.19c0,1.11-0.45,1.52-1.44,1.52
			c-0.64,0-1.24-0.17-1.9-0.55l-0.12-0.07l0.76-1.47l-1.24-0.63l-0.68,1.37c-0.43,0.88-0.83,1.12-1.77,1.12h-0.33h0h-0.8
			c-0.88,0-1.29-0.41-1.29-1.31v-1.85h-1.44v1.85c0,1.08-0.31,1.49-1.01,1.49h-0.3c-0.74,0-1.01-0.41-1.01-1.49v-1.19h-1.44v1.19
			c0,1.11-0.45,1.52-1.44,1.52c-0.64,0-1.22-0.17-1.89-0.55l-0.12-0.07l0.74-1.47l-1.24-0.63l-0.68,1.37
			c-0.43,0.88-0.83,1.12-1.77,1.12h-13.87c-0.86,0-1.24-0.25-1.24-1.04v-5.69h-1.51v0.88l-1.75,0.93c-1.9,1.01-2.78,1.95-2.78,3.46
			c0,1.47,0.84,2.33,2.37,2.33c1.14,0,1.84-0.51,2.17-1.74h0.08v0.2c0,1.74,0.81,2.55,2.81,2.55h13c1.31,0,2.07-0.17,2.73-0.84
			l0.45,0.26c0.91,0.55,1.54,0.78,2.18,0.78c1.01,0,1.65-0.66,1.84-1.93h0.1c0.22,1.29,0.86,1.93,2,1.93c1.04,0,1.64-0.56,1.77-1.93
			h0.08c0.3,1.19,1.12,1.74,2.66,1.74h0.19c1.31,0,2.08-0.17,2.73-0.84l0.45,0.26c0.91,0.55,1.54,0.78,2.18,0.78
			c1.01,0,1.65-0.66,1.84-1.93h0.1c0.23,1.29,0.99,1.93,2.4,1.93C409.33,159.1,410.18,158.08,410.18,156.14z M368.13,154.9
			c0,0.84-0.48,1.12-1.8,1.12c-1.01,0-1.37-0.26-1.37-0.91c0-0.68,0.51-1.08,1.69-1.69l1.49-0.76V154.9z"/>
		<path class="st4" d="M413.05,149.71v1.14h3.62v-1.24h-1.14c-0.74,0-1.16-0.23-1.16-0.66c0-0.28,0.26-0.5,0.66-0.5
			c0.3,0,0.6,0.15,0.83,0.38l0.69-0.89c-0.35-0.43-0.96-0.71-1.52-0.71c-0.94,0-1.64,0.66-1.64,1.54c0,0.31,0.12,0.64,0.31,0.86
			l-0.02,0.08H413.05z"/>
		<path class="st4" d="M426.93,152.37c-1.47,0-2.28,0.91-2.81,2.27l-0.46,1.19c-0.33,0.88-0.61,1.21-1.46,1.21h-3.43h0h-0.78
			c-0.03-2.96-1.21-4.71-3.13-4.71c-1.84,0-3.18,1.67-3.18,3.79c0,1.77,1.04,2.79,2.81,2.79h1.99c-0.41,1.31-1.7,2.1-4,2.1h-0.96
			v1.87h1.03c2.94,0,4.71-1.44,5.26-3.97h0.56h0h3.43c1.09,0,1.77-0.26,2.27-0.94l4.43,1.24l1.24-1.82v-0.64
			C429.74,154.01,428.73,152.37,426.93,152.37z M416.62,157.04h-2.05c-0.98,0-1.51-0.35-1.51-1.16c0-0.99,0.65-1.67,1.65-1.67
			c1.12,0,1.9,0.99,1.9,2.51V157.04z M428.32,157.2l-3.47-0.98l0.26-0.71c0.3-0.79,0.74-1.27,1.52-1.27c1.06,0,1.69,0.94,1.69,2.5
			V157.2z"/>
		<path class="st4" d="M187.18,165.22c0-0.66-0.35-0.94-0.84-0.94h-0.25c-0.5,0-0.83,0.28-0.83,0.94c0,0.64,0.33,0.94,0.83,0.94
			h0.25C186.84,166.16,187.18,165.87,187.18,165.22z"/>
		<path class="st4" d="M183.7,166.16c0.5,0,0.84-0.3,0.84-0.94c0-0.66-0.35-0.94-0.84-0.94h-0.25c-0.5,0-0.83,0.28-0.83,0.94
			c0,0.64,0.33,0.94,0.83,0.94H183.7z"/>
		<line class="st5" x1="199.62" y1="158.91" x2="199.97" y2="158.91"/>
		<path class="st4" d="M231.43,155.73v-8.9h-1.55v8.9c0,0.89-0.35,1.31-1.31,1.31h-1.67h0h-1.37L225.5,157
			c1.31-1.04,1.8-1.54,1.8-2.71c0-1.65-1.16-2.53-3.41-2.53c-1.11,0-2.35,0.3-3.36,0.79v1.92l2.02,2.5l-0.02,0.07h-3.12h0H205.1
			c-0.89,0-1.31-0.41-1.31-1.31v-8.9h-1.54v8.9c0,0.88-0.45,1.31-1.37,1.31h-1.26c-0.74,0-1.03-0.25-1.39-1.22l-1.24-3.32h-1.67
			l-0.91,0.56c-1.56,0.98-2.35,2-2.35,3.23c0,0.22,0.02,0.4,0.05,0.58c-0.31,0.15-0.68,0.18-1.36,0.18c-0.69,0-1.69-0.1-2.83-0.26
			l-2.07-0.31v1.9l3.72,0.53c-0.35,1.26-1.77,1.99-3.95,1.99h-1.14c-2.13,0-3.42-0.96-3.42-2.63c0-0.76,0.3-1.79,0.71-2.68
			l-1.26-0.38c-0.48,1.14-0.78,2.4-0.78,3.39c0,2.7,1.97,4.3,5.31,4.3c3.45,0,5.6-1.48,5.91-4.04c0.62-0.16,1-0.61,1.23-1.36h0.1
			c0.41,0.91,1.36,1.44,2.83,1.44h2.03v-1.21l0.1-0.02c0.53,0.89,1.16,1.22,2.36,1.22h0h0l0.35,0c1.44,0,2.08-0.53,2.35-1.89h0.1
			c0.28,1.29,1.21,1.89,2.86,1.89h14.19h0h1.7c0.99,0,1.97-0.25,2.81-0.81c0.84,0.56,1.9,0.81,2.91,0.81h1.67
			C230.6,158.91,231.43,157.9,231.43,155.73z M194.87,157.04c-0.99,0-1.54-0.28-1.54-0.94c0-0.58,0.63-1.06,1.5-1.51l0.99-0.5
			l0.88,2.35c0.08,0.22,0.15,0.41,0.23,0.6H194.87z M224.12,156.69l-2.27-2.7v-0.07c0.66-0.18,1.37-0.28,2.03-0.28
			c1.41,0,2.07,0.31,2.07,0.99c0,0.58-0.45,0.88-1.31,1.6L224.12,156.69z"/>
		<rect x="233.71" y="146.83" class="st4" width="1.54" height="12.08"/>
		<path class="st4" d="M239.7,159.78v4.15h1.52v-4.12c0-1.22,0.43-1.65,1.65-1.65h4.91v-1.74c0-2.93-1.29-4.63-3.41-4.63
			c-1.32,0-2.68,0.78-3.21,2.43l1.31,0.76c0.41-0.83,0.99-1.32,1.92-1.32c1.21,0,1.98,0.98,2.02,2.61h-3.54
			C240.73,156.28,239.7,157.4,239.7,159.78z"/>
		<path class="st4" d="M274.31,147.36c-0.5,0-0.83,0.28-0.83,0.94c0,0.65,0.33,0.94,0.83,0.94h0.25c0.5,0,0.84-0.3,0.84-0.94
			c0-0.66-0.35-0.94-0.84-0.94H274.31z"/>
		<path class="st4" d="M276.95,147.36c-0.5,0-0.83,0.28-0.83,0.94c0,0.65,0.33,0.94,0.83,0.94h0.25c0.5,0,0.84-0.3,0.84-0.94
			c0-0.66-0.35-0.94-0.84-0.94H276.95z"/>
		<path class="st4" d="M284.67,149.81c-0.5,0-0.83,0.28-0.83,0.94c0,0.65,0.33,0.94,0.83,0.94h0.25c0.5,0,0.84-0.3,0.84-0.94
			c0-0.66-0.35-0.94-0.84-0.94H284.67z"/>
		<path class="st4" d="M282.03,149.81c-0.5,0-0.83,0.28-0.83,0.94c0,0.65,0.33,0.94,0.83,0.94h0.25c0.5,0,0.84-0.3,0.84-0.94
			c0-0.66-0.35-0.94-0.84-0.94H282.03z"/>
		<path class="st4" d="M296.01,155.73v-8.9h-1.55v8.9c0,0.89-0.35,1.31-1.31,1.31h-1.16c-0.89,0-1.31-0.41-1.31-1.31v-8.9h-1.54v8.9
			c0,0.88-0.45,1.31-1.37,1.31h-2.25c-0.88,0-1.29-0.41-1.29-1.31v-2.51h-1.44v2.51c0,0.88-0.45,1.31-1.37,1.31h-1.83h-2.15
			l-0.03-0.08c0.99-0.86,1.49-1.84,1.49-2.99c0-1.87-1.27-3.37-3.11-3.37c-1.85,0-3.11,1.52-3.11,3.37c0,1.16,0.48,2.13,1.49,2.99
			l-0.03,0.08H272h0h-14.29c-0.78,0-1.16-0.41-1.74-2.03l-1.69-4.68l-1.57,0.56l1.54,4.28c0.2,0.58,0.31,0.91,0.31,1.16
			c0,0.55-0.36,0.71-1.54,0.71h-2.25v-1.17h-1.47v1.21c0,1.24,0.7,1.84,1.8,1.84h1.54c1.41,0,2.03-0.51,2.23-1.8l0.08-0.02
			c0.64,1.39,1.32,1.82,2.78,1.82l0.02-0.01v0.01h14.83c1.14,0,2.25-0.25,3.19-0.89c0.96,0.65,2.05,0.89,3.21,0.89h1.48
			c1.47,0,2.12-0.53,2.38-1.89h0.1c0.28,1.29,1.16,1.89,2.78,1.89l0.02-0.02l1.11,0.02c1.44,0,2.08-0.53,2.35-1.89h0.1
			c0.28,1.29,1.21,1.89,2.86,1.89h0.98C295.18,158.91,296.01,157.9,296.01,155.73z M275.79,156.66c-1.11-0.61-1.79-1.39-1.79-2.45
			c0-1.06,0.71-1.75,1.69-1.75h0.18c0.99,0,1.69,0.69,1.69,1.75C277.56,155.27,276.9,156.04,275.79,156.66z"/>
		<path class="st4" d="M309.63,150.62c-0.5,0-0.83,0.28-0.83,0.94c0,0.65,0.33,0.94,0.83,0.94h0.25c0.5,0,0.84-0.3,0.84-0.94
			c0-0.66-0.35-0.94-0.84-0.94H309.63z"/>
		<path class="st4" d="M307,150.62c-0.5,0-0.83,0.28-0.83,0.94c0,0.65,0.33,0.94,0.83,0.94h0.25c0.5,0,0.84-0.3,0.84-0.94
			c0-0.66-0.35-0.94-0.84-0.94H307z"/>
		<path class="st4" d="M320.49,161.4c0-0.66-0.35-0.94-0.84-0.94h-0.25c-0.5,0-0.83,0.28-0.83,0.94c0,0.64,0.33,0.94,0.83,0.94h0.25
			C320.15,162.35,320.49,162.05,320.49,161.4z"/>
		<path class="st4" d="M316.76,160.46c-0.5,0-0.83,0.28-0.83,0.94c0,0.64,0.33,0.94,0.83,0.94h0.25c0.5,0,0.84-0.3,0.84-0.94
			c0-0.66-0.35-0.94-0.84-0.94H316.76z"/>
		<path class="st4" d="M329.22,158.91h0.56h0h18.75l0.53-0.81c0.6,0.63,1.24,0.81,2.18,0.81h0.98c2.03,0,2.86-1.01,2.86-3.18v-8.9
			h-1.55v8.9c0,0.89-0.35,1.31-1.31,1.31h-0.97c-0.6,0-1.04-0.07-1.52-0.36v-0.36c0-2.75-1.21-4.02-3.85-4.02h-13.85v-0.08
			l7.05-3.66v-1.9l-7.72,4v3.52h14.54c1.69,0,2.46,0.7,2.46,2.23v0.63h-18.17h0h-0.78c-0.03-2.96-1.21-4.71-3.13-4.71
			c-1.84,0-3.18,1.67-3.18,3.79c0,1.77,1.04,2.8,2.81,2.8h1.98c-0.41,1.31-1.7,2.1-4,2.1h-0.96v1.87h1.03
			C326.9,162.88,328.67,161.44,329.22,158.91z M325.98,157.04c-0.98,0-1.51-0.35-1.51-1.16c0-0.99,0.64-1.67,1.65-1.67
			c1.12,0,1.9,0.99,1.9,2.51v0.31H325.98z"/>
		<rect x="357.36" y="146.83" class="st4" width="1.54" height="12.08"/>
		<path class="st4" d="M321.73,155.85c0-0.5-0.07-1.21-0.2-2.08l-0.22-1.44l-1.44,0.23l0.26,1.44c0.15,0.94,0.2,1.47,0.2,1.85
			c0,0.91-0.55,1.19-2.05,1.19h-0.89c-0.94,0-1.37-0.41-1.37-1.31v-2.51h-1.44v2.51c0,1.09-0.78,1.37-3.94,1.37h-5.1
			c-2.78,0-3.92-0.56-3.92-1.92c0-0.63,0.23-1.37,0.65-2.25l-1.27-0.38c-0.45,1.08-0.68,2.08-0.68,2.96c0,2.65,1.62,3.59,6.32,3.59
			h2.79c3.74,0,4.93-0.48,5.24-2.12h0.08c0.3,1.31,1.19,1.92,2.79,1.92h0.74C320.62,158.91,321.73,157.91,321.73,155.85z"/>
	</g>
</g>
<g id="Artwork_2_1_">
	<g>
		<g>
			<path class="st6" d="M308.41-80.68h6.85v-37.74h-6.85V-80.68z M332.98-118.42l-16.19,18.88l16.19,18.87h9.45L325.4-99.55
				l17.03-18.88H332.98z M377.02-96.22l5.88-15.68l11.71,31.22h7.61L387-118.42h-8.19l-15.23,37.74h7.61l3.26-8.69h10.09l2.76-6.85
				H377.02z M428.39-117.58c-1.49-0.38-14.74-3.51-21.12,1.64c-2.29,1.85-3.49,4.48-3.49,7.65c0,8.08,6.95,10.29,12.03,11.91
				c5.56,1.78,7.3,2.74,7.3,5.34c0,1.3-0.49,1.88-0.96,2.28c-2.86,2.38-11.16,1.97-16.14,0.92l-1.35,6.65c0.8,0.18,4.87,1,9.51,1
				c4.29,0,9.06-0.7,12.16-3.29c2.23-1.85,3.41-4.46,3.41-7.55c0-8.02-6.92-10.23-11.96-11.84c-5.62-1.78-7.37-2.76-7.37-5.41
				c0-1.35,0.49-1.91,0.96-2.31c2.82-2.27,10.96-1.54,15.67-0.32L428.39-117.58z M363.07-103.07h-11.41v-8.33h18.24l2.84-7.03
				h-27.93v37.74h6.85v-15.53h8.65L363.07-103.07z"/>
			<path class="st6" d="M294.05-120.06l-57.51-24.26c-5.97,1.97-11.85,4.15-17.63,6.53c-6.96,2.87-13.77,6.03-20.4,9.44
				c-6.44,3.32-12.71,6.87-18.78,10.63L294.05-120.06z"/>
			<path class="st6" d="M297.95-123.62l-18.74-30.6c-5.69,0.76-11.33,1.75-16.93,2.94c-7.45,1.58-14.81,3.52-22.04,5.78
				c-0.96,0.3-1.91,0.6-2.86,0.91L297.95-123.62z"/>
			<path class="st6" d="M303.31-124.56l2.36-31.59c-6.97,0.07-13.92,0.49-20.82,1.24c-1.66,0.18-3.32,0.38-4.97,0.6L303.31-124.56z"
				/>
			<path class="st6" d="M263.73-76.79c0.4,0.4,0.79,0.79,1.18,1.19c0.82,0.84,1.62,1.69,2.41,2.55c0.79,0.86,1.56,1.72,2.31,2.59
				c0.75,0.87,1.49,1.75,2.21,2.64c0.72,0.88,1.42,1.78,2.11,2.68c0.69,0.9,1.35,1.81,2.01,2.72c0.65,0.91,1.28,1.83,1.9,2.76
				c1.18-4.44,2.52-8.92,4.01-13.39c1.5-4.47,3.16-8.93,4.98-13.33c1.82-4.41,3.8-8.75,5.95-13c0.83-1.64,1.69-3.26,2.57-4.87
				L263.73-76.79z"/>
			<path class="st6" d="M337.87-153.57c-1.89-0.35-3.81-0.67-5.76-0.95c-1.95-0.28-3.92-0.52-5.91-0.73
				c-1.99-0.21-4.01-0.38-6.04-0.52c-2.03-0.14-4.08-0.24-6.15-0.31c-2.06-0.07-4.14-0.1-6.23-0.1c-0.48,0-0.95,0.01-1.43,0.01
				l2.02,31.95c2.59-3.31,5.31-6.45,8.17-9.38c1.29-1.32,2.62-2.61,3.98-3.86c1.36-1.25,2.76-2.46,4.19-3.62
				c1.43-1.16,2.9-2.28,4.4-3.34c1.5-1.06,3.03-2.07,4.59-3.03c1.56-0.95,3.16-1.84,4.79-2.67c1.63-0.82,3.29-1.58,4.98-2.27
				C341.62-152.82,339.76-153.21,337.87-153.57"/>
			<path class="st6" d="M293.09-109.66l-50.12,16.11l-0.04-0.03l49.25-21.36l-110.82-2.16c4.43,0.67,8.9,1.55,13.36,2.64
				c5.18,1.27,10.35,2.83,15.46,4.65c5.11,1.83,10.16,3.93,15.09,6.29c4.93,2.36,9.74,4.98,14.37,7.84
				c4.63,2.87,9.09,5.98,13.32,9.33c3.78,2.99,7.37,6.17,10.74,9.53L293.09-109.66z"/>
			<path class="st6" d="M265.9-71.68c-0.77-0.84-1.57-1.68-2.37-2.51c-3.59-3.68-7.54-7.24-11.75-10.57
				c-4.11-3.25-8.53-6.35-13.14-9.2c-4.52-2.8-9.3-5.4-14.19-7.75c-4.83-2.31-9.84-4.4-14.9-6.21c-5.02-1.79-10.16-3.34-15.27-4.59
				c-1.17-0.29-2.35-0.56-3.52-0.82c-1.16,0.85-2.41,1.83-3.68,3.02c34.05,5.91,62.08,23.88,78.98,38.8
				C266-71.57,265.95-71.62,265.9-71.68"/>
		</g>
	</g>
</g>
</svg>
